<svg width="195" height="49" fill="none" xmlns="http://www.w3.org/2000/svg">
  <path
    d="M16.883 48.443c-2.029 0-4.112-.284-6.374-.868-1.659-.427-3.75-1.466-6.22-3.08-1.513-.988-2.449-2.544-2.573-4.263-.125-1.711.577-3.364 1.925-4.527L7.237 32.6l.636.766c.25.284 3.464 3.163 6.362 3.863l.403.097c.844.206 1.572.389 2.245.389.703 0 1.414-.078 2.117-.234a6.68 6.68 0 0 0 1.854-.696c.52-.295.936-.677 1.272-1.167.308-.45.466-1.046.466-1.765 0-.18-.087-.413-.25-.681-.19-.307-.557-.669-1.085-1.074-.57-.431-1.38-.906-2.415-1.411-1.065-.518-2.42-1.078-4.03-1.665a55.886 55.886 0 0 1-5.45-2.256c-1.726-.828-3.243-1.82-4.516-2.944-1.301-1.148-2.32-2.474-3.035-3.948-.72-1.478-1.08-3.205-1.08-5.126 0-1.957.394-3.816 1.176-5.527a13.159 13.159 0 0 1 3.355-4.48c1.439-1.253 3.185-2.245 5.197-2.949 2-.7 4.229-1.054 6.624-1.054 1.297 0 2.698.16 4.166.47a27.52 27.52 0 0 1 3.33.942c2.233.778 3.884 2.458 4.524 4.613.645 2.17.154 4.426-1.343 6.184l-1.684 1.976-.732-.467a9.45 9.45 0 0 1-.507-.362c-1.135-.84-3.497-2.586-7.421-2.633h-.15c-1.605 0-2.882.304-3.792.899-.823.54-1.21 1.28-1.21 2.322 0 .408.129.77.395 1.108.32.405.77.79 1.339 1.136a14.13 14.13 0 0 0 2.15 1.05c.843.334 1.746.65 2.681.941 2.823 1.012 5.202 2.038 7.118 3.065 1.95 1.046 3.551 2.182 4.757 3.376 1.235 1.225 2.125 2.567 2.648 3.987.516 1.396.774 2.932.774 4.57a12.76 12.76 0 0 1-1.326 5.71 14.34 14.34 0 0 1-3.63 4.628c-1.526 1.291-3.364 2.322-5.46 3.065-2.087.746-4.386 1.124-6.827 1.124ZM80.897 47.996c-3.85 0-7.347-2.124-8.91-5.414L62.05 21.715c-1.983 4.197-6.886 14.593-9.817 20.832-1.555 3.31-5.06 5.449-8.927 5.449H37.15L59.368.747h.624c2.844 0 5.426 1.568 6.582 3.999l20.602 43.25h-6.279ZM134.093 48.443c-2.977 0-5.83-1.186-7.821-3.26l-21.401-22.25v15.292c0 5.387-4.685 9.767-10.44 9.767h-.956V.743h.956c2.936 0 5.746 1.171 7.709 3.213l21.516 22.364V10.96c0-5.386 4.682-9.766 10.441-9.766h.956v47.253h-.96v-.004ZM169.908 48.443c-3.135 0-6.236-.564-9.222-1.673-2.985-1.108-5.684-2.691-8.029-4.706-2.349-2.019-4.265-4.496-5.683-7.355-1.426-2.87-2.15-6.126-2.15-9.669 0-3.065.636-6.056 1.892-8.895a23.786 23.786 0 0 1 5.251-7.514c2.229-2.147 4.89-3.89 7.921-5.177 3.048-1.291 6.415-1.945 10.02-1.945 3.177 0 6.32.584 9.335 1.739 3.006 1.151 5.7 2.792 7.999 4.877a24.526 24.526 0 0 1 5.568 7.44c1.405 2.87 2.116 6.06 2.116 9.471 0 3.018-.624 5.967-1.859 8.763a24.153 24.153 0 0 1-5.172 7.476c-2.204 2.174-4.873 3.928-7.933 5.215-3.069 1.3-6.449 1.953-10.054 1.953Zm0-36.331c-1.921 0-3.733.342-5.392 1.019-1.668.68-3.14 1.622-4.374 2.796a13.615 13.615 0 0 0-2.969 4.135 11.667 11.667 0 0 0-1.089 4.982c0 1.758.365 3.43 1.089 4.979a13.195 13.195 0 0 0 2.96 4.099c1.235 1.155 2.715 2.073 4.403 2.734 1.684.657 3.493.992 5.372.992 1.875 0 3.655-.342 5.285-1.015 1.646-.68 3.114-1.614 4.349-2.773a13.37 13.37 0 0 0 2.965-4.069 11.527 11.527 0 0 0 1.085-4.943c0-1.754-.366-3.43-1.09-4.982a13.387 13.387 0 0 0-2.997-4.13 14.459 14.459 0 0 0-4.387-2.805 13.501 13.501 0 0 0-5.21-1.02Z"
    fill="#003246" />
  <path
    d="M169.875 30.765c-3.414 0-6.187-2.598-6.187-5.787 0-3.193 2.778-5.788 6.187-5.788 3.414 0 6.187 2.599 6.187 5.788 0 3.193-2.773 5.787-6.187 5.787Z"
    fill="#FFBE00" />
</svg>